<svg xmlns="http://www.w3.org/2000/svg" version="1.1" xmlns:xlink="http://www.w3.org/1999/xlink" xmlns:svgjs="http://svgjs.dev/svgjs" width="1000" height="1000" viewBox="0 0 1000 1000"><rect width="1000" height="1000" fill="#000000"></rect><g transform="matrix(0.7,0,0,0.7,149.57575757575756,282.1265587044535)"><svg viewBox="0 0 396 247" data-background-color="#102e44" preserveAspectRatio="xMidYMid meet" height="623" width="1000" xmlns="http://www.w3.org/2000/svg" xmlns:xlink="http://www.w3.org/1999/xlink"><g id="tight-bounds" transform="matrix(1,0,0,1,0.2400000000000091,-0.09999999999999432)"><svg viewBox="0 0 395.52 247.2" height="247.2" width="395.52"><g><svg viewBox="0 0 395.52 247.2" height="247.2" width="395.52"><g transform="matrix(1,0,0,1,38.08747542867013,0)"><svg viewBox="0 0 319.3450491426597 247.2" height="247.2" width="319.3450491426597"><g><svg viewBox="0 0 395.52 306.1658361777904" height="247.2" width="319.3450491426597"><g><svg viewBox="0 0 395.52 306.1658361777904" height="306.1658361777904" width="395.52"><g><svg viewBox="0 0 395.52 306.1658361777904" height="306.1658361777904" width="395.52"><g><svg viewBox="0 0 395.52 219.608039914469" height="219.608039914469" width="395.52"><g transform="matrix(1,0,0,1,0,0)"><svg width="395.52" viewBox="0.3999977111816406 -34.55000305175781 141.65000915527344 74.20000457763672" height="219.608039914469" data-palette-color="#ffffff"><svg></svg><svg></svg><g class="undefined-text-0" data-fill-palette-color="primary" id="text-0"><path xmlns="http://www.w3.org/2000/svg" d="M0.4-34.55h21.55l-0.7 5h-7.1v29.55h-6.35v-29.55h-7.4zM39.85-34.55h6.5l-9.1 21.4v13.15h-6.4v-13.1l-9.1-21.45h6.75l5.65 16.25zM49.1-34.55h6.35v29.3h11.15l-0.7 5.25h-16.8zM69.95-34.55h17.15l-0.65 4.75h-10.15v9.9h8.85v4.7h-8.85v10.4h10.8v4.8h-17.15zM113.95 0h-6.85l-6.1-13.95h-0.6-2.45v13.95h-6.35v-34.55h8.15c8.333 0 12.5 3.383 12.5 10.15v0c0 2.1-0.467 3.96-1.4 5.58-0.933 1.613-2.333 2.837-4.2 3.67v0zM100.05-18.55c1.967 0 3.393-0.467 4.28-1.4 0.88-0.933 1.32-2.417 1.32-4.45v0c0-1.9-0.457-3.293-1.37-4.18-0.92-0.88-2.43-1.32-4.53-1.32v0h-1.8v11.35z" fill="#ffffff" fill-rule="nonzero" stroke="none" stroke-width="1" stroke-linecap="butt" stroke-linejoin="miter" stroke-miterlimit="10" stroke-dasharray="" stroke-dashoffset="0" font-family="none" font-weight="none" font-size="none" text-anchor="none" style="mix-blend-mode: normal" data-fill-palette-color="primary" opacity="1"></path><path xmlns="http://www.w3.org/2000/svg" d="M15.25 3.7c1.9 0 3.6 0.34 5.1 1.02 1.5 0.687 2.917 1.68 4.25 2.98v0l-3.2 3.3c-1.033-0.9-2-1.543-2.9-1.93-0.9-0.38-1.917-0.57-3.05-0.57v0c-2.2 0-3.923 0.983-5.17 2.95-1.253 1.967-1.88 5.367-1.88 10.2v0c0 3.4 0.227 6.057 0.68 7.97 0.447 1.92 1.113 3.263 2 4.03 0.88 0.767 2.037 1.15 3.47 1.15v0c1.5 0 2.867-0.417 4.1-1.25v0-9.35h-3.9l-0.65-4.75h10.6v16.9c-1.433 1.033-3.023 1.84-4.77 2.42-1.753 0.587-3.53 0.88-5.33 0.88v0c-4.3 0-7.517-1.46-9.65-4.38-2.133-2.913-3.2-7.453-3.2-13.62v0c0-4 0.593-7.343 1.78-10.03 1.18-2.68 2.787-4.67 4.82-5.97 2.033-1.3 4.333-1.95 6.9-1.95zM52.25 38.95h-6.85l-6.1-13.95h-0.6-2.45v13.95h-6.35v-34.55h8.15c8.333 0 12.5 3.383 12.5 10.15v0c0 2.1-0.467 3.96-1.4 5.58-0.933 1.613-2.333 2.837-4.2 3.67v0zM38.35 20.4c1.967 0 3.393-0.467 4.28-1.4 0.88-0.933 1.32-2.417 1.32-4.45v0c0-1.9-0.457-3.293-1.37-4.18-0.92-0.88-2.43-1.32-4.53-1.32v0h-1.8v11.35zM55.45 4.4h6.35v34.55h-6.35zM74.15 38.95h-6.35v-34.55h16.7l-0.7 4.75h-9.65v10.55h8.4v4.75h-8.4zM94.3 38.95h-6.35v-34.55h16.7l-0.7 4.75h-9.65v10.55h8.4v4.75h-8.4zM108.1 4.4h6.35v34.55h-6.35zM142.05 4.4v34.55h-8.1l-8.75-28.3c0.267 2.4 0.477 4.607 0.63 6.62 0.147 2.02 0.22 4.413 0.22 7.18v0 14.5h-5.6v-34.55h8.05l8.75 28.3c-0.2-1.2-0.39-2.9-0.57-5.1-0.187-2.2-0.28-4.433-0.28-6.7v0-16.5z" fill="#ffffff" fill-rule="nonzero" stroke="none" stroke-width="1" stroke-linecap="butt" stroke-linejoin="miter" stroke-miterlimit="10" stroke-dasharray="" stroke-dashoffset="0" font-family="none" font-weight="none" font-size="none" text-anchor="none" style="mix-blend-mode: normal" data-fill-palette-color="primary" opacity="1"></path></g></svg></g></svg></g><g transform="matrix(1,0,0,1,0,243.5335668121454)"><svg viewBox="0 0 183.28327039812646 62.632269365645044" height="62.632269365645044" width="183.28327039812646"><g transform="matrix(1,0,0,1,0,0)"><svg width="183.28327039812646" viewBox="2.490000009536743 -33.88999938964844 96.02000427246094 32.81999969482422" height="62.632269365645044" data-palette-color="#ffffff"><path d="M9.42-33.89L15.67-33.89Q19.02-33.89 21.69-33.45 24.37-33.01 26.82-31.88 29.27-30.76 30.91-28.96 32.54-27.15 33.51-24.27 34.47-21.39 34.47-17.58L34.47-17.58Q34.47-14.79 33.81-12.39 33.15-9.99 32.01-8.25 30.86-6.52 29.38-5.16 27.91-3.81 26.17-2.95 24.44-2.1 22.71-1.64 20.97-1.17 19.24-1.07L19.24-1.07 2.49-1.07 2.49-33.5Q2.56-33.5 2.76-33.47 2.95-33.45 3.03-33.45L3.03-33.45Q4.08-33.45 6.21-33.67 8.35-33.89 9.42-33.89L9.42-33.89ZM14.79-8.69L15.97-8.69Q17.21-8.69 18.16-9.09 19.12-9.5 19.69-10.25 20.26-11.01 20.64-11.84 21.02-12.67 21.19-13.79 21.36-14.92 21.42-15.76 21.48-16.6 21.48-17.68L21.48-17.68 21.48-19.43Q21.46-19.6 21.34-21.09 21.22-22.58 20.8-23.63L20.8-23.63Q20.41-24.39 19.93-24.94 19.46-25.49 18.99-25.79 18.53-26.1 17.91-26.26 17.29-26.42 16.77-26.46 16.26-26.51 15.53-26.51L15.53-26.51 15.53-25.98 14.79-25.98 14.79-8.69ZM37.6-1.81L37.6-31.54Q37.6-33.01 37.72-33.25L37.72-33.25Q37.94-33.59 38.43-33.59L38.43-33.59 39.01-33.59Q39.4-33.59 39.55-33.54L39.55-33.54 40.82-33.54Q43.28-33.54 48.28-33.67 53.27-33.79 55.76-33.79L55.76-33.79 62.25-33.79Q62.89-33.72 62.89-33.15L62.89-33.15 62.89-25Q62.86-24.85 62.8-24.74 62.74-24.63 62.71-24.6 62.67-24.56 62.47-24.43 62.28-24.29 62.2-24.22L62.2-24.22 50.88-24.22 50.88-21.19 51.95-21.19Q53.37-21.19 56.27-21.29 59.18-21.39 60.74-21.39L60.74-21.39Q61.42-21.39 61.67-21.12 61.91-20.85 61.91-20.36L61.91-20.36Q61.91-20.24 61.86-19.95 61.81-19.65 61.81-19.53L61.81-19.53 61.81-18.6Q61.81-18.51 61.84-18.2 61.86-17.9 61.86-17.68L61.86-17.68 61.86-16.99Q61.86-16.46 61.91-15.92 61.96-15.38 61.96-14.99L61.96-14.99 61.96-14.36Q61.84-14.06 61.77-13.96 61.69-13.87 61.52-13.87L61.52-13.87 61.52-13.92Q60.62-13.92 58.41-13.79 56.2-13.67 54.88-13.67L54.88-13.67 50.97-13.67 50.97-10.55Q51.17-10.55 51.56-10.52 51.95-10.5 52.15-10.5L52.15-10.5Q53.24-10.5 55.39-10.57 57.54-10.64 58.49-10.64L58.49-10.64 61.62-10.64Q62.89-10.64 63.23-10.35L63.23-10.35Q63.35-10.21 63.43-10.06L63.43-10.06 63.43-2.25Q63.43-1.73 63.23-1.46 63.03-1.2 62.5-1.17L62.5-1.17 38.33-1.17 37.6-1.81ZM83.08-18.8L82.69-21.48Q82.86-22.41 83.63-25.04 84.39-27.66 84.54-29.2L84.54-29.2 84.54-30.91Q84.54-30.96 84.6-31.32 84.66-31.69 84.68-31.76 84.69-31.84 84.75-32.14 84.81-32.45 84.87-32.54 84.93-32.64 85.04-32.86 85.15-33.08 85.27-33.17 85.4-33.25 85.58-33.37 85.76-33.5 85.99-33.54 86.23-33.59 86.49-33.59L86.49-33.59 97.63-33.59Q97.68-33.57 97.92-33.4 98.16-33.23 98.32-33.11 98.48-32.98 98.51-32.91L98.51-32.91 90.33-3.49Q90.06-2.47 89.66-1.77 89.25-1.07 88.74-1.07L88.74-1.07 72.04-1.07Q71.65-2.64 71.14-4.76 70.62-6.88 70.11-9 69.6-11.11 69.21-12.7L69.21-12.7 63.28-32.86Q63.28-33.42 64.08-33.59L64.08-33.59 64.08-33.69Q65.55-33.69 68.51-33.74 71.48-33.79 72.82-33.79L72.82-33.79 76.83-33.79Q77-33.79 77.06-33.73 77.12-33.67 77.2-33.48 77.29-33.3 77.44-33.15L77.44-33.15 80.93-12.89 83.08-18.8Z" opacity="1" transform="matrix(1,0,0,1,0,0)" fill="#ffffff" class="undefined-text-1" data-fill-palette-color="secondary" id="text-1"></path></svg></g></svg></g></svg></g></svg></g></svg></g></svg></g></svg></g><defs></defs></svg><rect width="395.52" height="247.2" fill="none" stroke="none" visibility="hidden"></rect></g></svg></g></svg>